# xmcd
#
# Track frame offsets: 
#        150
#        16420
#        31252
#        47390
#        60417
#        71787
#        89975
#        109360
#        126006
#        145900
#        170032
#        183253
#
# Disc length: 2621 seconds
#
# Revision: 0
# Processed by: cddbd v1.5.2PL0 Copyright (c) Steve Scherf et al.
# Submitted via: ExactAudioCopy v0.95b3
#
DISCID=aa0a3b0c
DTITLE=Los Originales De San Juan - El Clavo y Muchos Corridos Mas
DYEAR=2006
DGENRE=Latin
TTITLE0=El Clavo
TTITLE1=El Corrido Del Charapo
TTITLE2=El Chanto Fernandez
TTITLE3=Sierras Michoacanas
TTITLE4=Porque Mate A Mi Mujer
TTITLE5=El Gallo De Michoacan
TTITLE6=Pedro Rojas
TTITLE7=Armando Herrera
TTITLE8=La Muerte Del Liguero
TTITLE9=Los Dos Sinaloenses
TTITLE10=Chema Avila
TTITLE11=El Trabajo De Michoacan
EXTD=
EXTT0=
EXTT1=
EXTT2=
EXTT3=
EXTT4=
EXTT5=
EXTT6=
EXTT7=
EXTT8=
EXTT9=
EXTT10=
EXTT11=
PLAYORDER=
